mtllib L2.mtl
v -0.03237458318 -0.0109550897 0.3657180071
vn -0.7935952544 0.40037328 -0.4581570029
v -0.03172424063 -0.01057079155 0.3657180071
vn -0.349203676 0.8985139728 -0.2659501433
v 0.05682799593 0.02382499911 0.3795930147
vn 0.9936767817 0.05067005381 0.1001950353
v 0.05216899514 -0.01179199945 0.3957419991
vn 0.9916745424 -0.07953520864 0.1012705937
v 0.04757800326 -0.01169299986 0.4369460046
vn 0.9904643297 -0.08315326273 0.1098453701
v 0.04936600104 0.00679899985 0.4349710047
vn 0.9900279045 -0.08976182342 0.108570464
v 0.0441739969 0.006428999826 0.48141101
vn 0.9892203212 -0.0932655558 0.1128926426
v 0.05099000037 0.02149700001 0.4332730174
vn 0.9901375771 -0.08969311416 0.1076228842
v 0.04565000162 0.02095099539 0.4815890193
vn 0.9892585874 -0.09377660602 0.1121311411
v 0.04576100037 0.02345500328 0.4816490114
vn 0.991799891 0.05499680713 0.1153616011
v -0.03137245774 -0.01044781879 0.3657180071
vn -0.2442924678 0.836720407 -0.4901225567
v -0.03618999943 -0.009743000381 0.3865199983
vn -0.3689936996 0.9281480312 -0.04883498326
v 0.05114099756 0.02399699949 0.4330599904
vn 0.9936316609 0.03256818652 0.1078679487
v 0.05087099969 0.02564100176 0.4331179857
vn 0.6396039128 0.7654259801 0.07092178613
v 0.04542599991 0.02520699799 0.4817689657
vn 0.6326974034 0.7694325447 0.08756456524
v -0.0319506228 -0.01066253893 0.3657180071
vn -0.4523078203 0.8308033347 -0.3243200779
v -0.03225515783 -0.01085983496 0.3657180071
vn -0.5560899973 0.7513973713 -0.3551984131
v -0.03431199864 -0.01020900067 0.3708549738
vn -0.2675069273 0.9476411343 -0.1744028926
v 0.03689360991 0.01312967855 0.5485764742
vn 0.9630443454 -0.09763352573 0.251024574
v 0.03753007576 0.01944529824 0.5485764742
vn 0.9136118889 -0.08411955088 0.3977904618
v 0.03337148204 0.02251460403 0.5485764742
vn -0.2538119555 0.9579049945 0.134154886
v 0.03512014076 -0.005258037709 0.5485764742
vn 0.5764580965 -0.05632331222 0.8151832223
v 0.03544479609 0.02305792458 0.5485764742
vn -0.1227709278 0.9816068411 0.1462031156
v 0.03602227941 0.004548077006 0.5485764742
vn 0.622505784 -0.05863412097 0.7804156542
v 0.03653520346 0.02308565751 0.5485764742
vn -0.03097399697 0.9911758304 0.1288839728
v 0.03431115672 -0.0129649546 0.5485764742
vn 0.09623589367 -0.8569968939 0.5062558055
v -0.0483710058 -0.01097799558 0.5057079792
vn -0.1828150451 0.9831414819 0.003383289324
v -0.0525309965 -0.01397099718 0.5065609813
vn 0.01832551882 -0.999725163 -0.01461943705
v -0.05325741321 -0.01221588533 0.5485764742
vn -0.3420226574 0.9361327291 0.08170704544
v -0.04852928221 -0.01092288271 0.5485764742
vn -0.3697416484 0.8995113969 0.23274526
v 0.03755322099 0.02029364556 0.5485764742
vn 0.9053198695 -0.02749962918 0.4238392413
v -0.04983219504 -0.01479770336 0.5485764742
vn 0.02001319826 -0.9847996831 0.1725370288
v -0.05658921599 -0.01493038796 0.5485764742
vn -0.3683335185 -0.9296782613 0.005366743077
v 0.03719799593 -0.01262099855 0.526237011
vn 0.01962985657 -0.999694109 -0.01504330244
v -0.05051121116 -0.01173578575 0.5485764742
vn -0.2298739702 0.9719370604 0.04996289685
v 0.03227029741 0.02220697515 0.5485764742
vn -0.2480118871 0.6074727774 0.7546303272
v 0.006560399197 -0.002864754293 0.5485764742
vn 8.742277657e-08 6.123234263e-17 1
v -0.04622599483 -0.01063399483 0.5050519705
vn -0.3750971854 0.9268351197 -0.0166969914
v -0.03001775965 -0.01004945487 0.3657180071
vn -0.2469073832 0.4584179521 -0.8537504077
v -0.03061065078 -0.01024566218 0.3657180071
vn -0.1264345497 0.4561692178 -0.8808654547
v -0.02565712295 -0.007577655371 0.3657180071
vn -0.347065419 0.6678088903 -0.6584655643
v -0.02514290437 -0.00732857082 0.3657180071
vn -0.3269686103 0.6716349125 -0.6648293734
v -0.04606299847 -0.01088699792 0.4650569856
vn -0.6347917318 0.7713286877 -0.0457329601
v -0.0465499945 -0.01154599804 0.4651769996
vn -0.6997001171 0.7122146487 -0.0563030839
v -0.04312800243 -0.01114999689 0.4224539995
vn -0.7993721962 0.5967819691 -0.06968079507
v -0.04900699481 -0.01345300116 0.4657549858
vn -0.6364527941 0.7695674896 -0.05190076306
v -0.04486100003 -0.01333499514 0.4233889878
vn -0.7347683311 0.6751176715 -0.06581517309
v -0.04133900627 -0.01347999834 0.3887320161
vn -0.8344711661 0.5421518087 -0.0986372605
v -0.03989300504 -0.01106000133 0.3884609938
vn -0.8490379453 0.5155857205 -0.1153513566
v -0.03882599995 -0.01386199892 0.3762199581
vn -0.8706005812 0.4451817274 -0.2094466537
v 0.03962399811 0.02392200194 0.5294880271
vn 0.6145833135 0.781942606 0.104178302
v -0.03614300117 -0.01125499979 0.3721069992
vn -0.8289938569 0.38704741 -0.4036873579
v -0.03273367509 -0.01153097022 0.3657180071
vn -0.8018829823 0.3651703298 -0.4728999436
v -0.03520999849 -0.01039499976 0.3715029955
vn -0.4487617016 0.8531811237 -0.2658851743
v -0.03245811537 -0.01115509775 0.3657180071
vn -0.7317746282 0.456302464 -0.5062548518
v -0.03737699986 -0.01116499957 0.3754919767
vn -0.8804376721 0.4265208244 -0.2071461231
v -0.03956800327 -0.01051099692 0.3884140253
vn -0.6754686832 0.7327672243 -0.08242721111
v -0.0425770022 -0.01064900309 0.4222310185
vn -0.5949728489 0.8023293614 -0.04769610986
v -0.04199700058 -0.01040100213 0.4219340384
vn -0.3370039463 0.9411888123 -0.02432939969
v -0.03705000132 -0.01055100001 0.3753229976
vn -0.6951326728 0.7009166479 -0.1597072929
v -0.03208800033 -0.009909000248 0.3693920076
vn -0.446521759 0.8611784577 -0.2428786308
v -0.03435678035 -0.01405355707 0.3657180071
vn 0.00459048897 -0.9999783039 0.004724011756
v -0.0525309965 -0.01397099718 0.5065609813
vn -0.6678249836 0.7427914739 -0.04765054211
v -0.03307235241 -0.01232514437 0.3657180071
vn -0.393422097 0.2531392574 -0.8838210106
v 0.0580336377 0.02403505705 0.3657180071
vn 0.9809158444 0.1873585433 0.05196975544
v -0.03653400019 -0.01030599978 0.3749880195
vn -0.3580928445 0.9291622043 -0.09179938585
v 0.05813515559 0.02364602685 0.3657180071
vn 0.9970159531 0.07710456103 0.003744401969
v 0.0581128858 0.02301032096 0.3657180071
vn 0.9744068384 -0.04094943777 -0.2210303545
v -0.03578700125 -0.01011599973 0.3746429682
vn -0.1965041757 0.9791167378 -0.05212040991
v -0.03848399967 -0.01009600051 0.3879490197
vn -0.189381659 0.9817246795 -0.01874244213
v 0.05116400123 0.02472200058 0.3821389973
vn -0.3639383316 0.93054986 -0.04032120481
v 0.05805325881 0.02169726416 0.3657180071
vn 0.9681887627 -0.07647747546 -0.2382472008
v 0.05737245083 0.01443775557 0.3657180071
vn 0.9937849641 -0.09604885429 -0.05626815557
v 0.05646335706 0.005092679523 0.3657180071
vn 0.4783124328 -0.0458464697 -0.8769922256
v -0.03903200105 -0.009833999909 0.4203849733
vn -0.3688304126 0.9288938046 -0.03347337618
v 0.05492601171 -0.01108572818 0.3657180071
vn 0.9151563644 -0.08154795319 -0.3947642446
v 0.04552699998 0.0248860009 0.4352839887
vn -0.3699409962 0.9284379482 -0.03386131302
v 0.04902499914 0.0256849993 0.4338569939
vn -0.1597828567 0.9870145917 -0.01648063585
v 0.04356500506 0.02518200502 0.4823410213
vn -0.1436117887 0.9896339178 0.0005652657128
v 0.05482287332 -0.01229233667 0.3657180071
vn 0.03196358681 -0.9217422009 -0.3864836395
v -0.02683281526 -0.01392090786 0.3657180071
vn 0.01660766266 -0.840931356 -0.540886879
v 0.05489400402 0.02543400042 0.3802160025
vn -0.07859167457 0.9967474341 -0.0178292226
v 0.05216899514 -0.01179199945 0.3957419991
vn 0.01775809005 -0.99975878 0.0129226502
v -0.03771900013 -0.01393700112 0.3728899956
vn 0.01739389822 -0.9995259643 0.02540172637
v 0.05660599843 0.02523599938 0.3792459965
vn 0.6491570473 0.7585888505 0.05601871759
v -0.03353200108 -0.009782000445 0.3731940091
vn -0.3899657726 0.914652288 -0.1064797416
v -0.05256788433 -0.0120399585 0.5485764742
vn -0.1868641227 0.9802250266 0.06512050331
v -0.05441061407 -0.01298375987 0.5485764742
vn -0.6680674553 0.7440873384 0.004461860284
v -0.05383748561 -0.01246609818 0.5485764742
vn -0.5960015059 0.8021328449 -0.03694659099
v 0.03715136647 0.02311125398 0.5485764742
vn 0.5947117209 0.7931964397 0.1309861392
v -0.05433766916 -0.01291798241 0.5485764742
vn -0.6648159623 0.7360528708 0.1274594665
v 0.03733300418 0.02248749509 0.5485764742
vn 0.9603298306 0.2357327938 0.1489854604
v 0.03758940473 0.02139850706 0.5485764742
vn 0.9806802869 0.03979642317 0.1915264726
v 0.03719799593 -0.01262099855 0.526237011
vn 0.9884471297 -0.0929037109 0.1197546497
v -0.05022199452 -0.01191399898 0.5061650276
vn -0.6577634215 0.7516641617 -0.04845897481
v -0.04967300221 -0.01140999701 0.5060679913
vn -0.5877528787 0.8080790043 -0.03943206742
v 0.03867800161 0.005519002676 0.5277680159
vn 0.9884046912 -0.09489499778 0.1185375303
v 0.04001099616 0.02040600218 0.5292209983
vn 0.9886101484 -0.09216704965 0.1189756021
v -0.04908500239 -0.01115899906 0.5059139729
vn -0.3238968551 0.946020484 -0.01166545041
v 0.04005099833 0.02218100429 0.5293639898
vn 0.9870949388 0.09909367561 0.125793457
v -0.02024317905 -0.004942012485 0.3657180071
vn -0.3817325532 0.8920115829 -0.2420653254
v -0.01913662441 -0.004452871624 0.3657180071
vn -0.361977905 0.8690006137 -0.3373571932
v -0.004081045743 0.001790244249 0.3657180071
vn -0.2124708146 0.5139945745 -0.8310630322
v 0.004950581584 0.005504097324 0.3657180071
vn -0.3032011688 0.7591318488 -0.5760102868
v 0.0528348349 0.02452273853 0.3657180071
vn -0.3188166618 0.8084938526 -0.4946651757
v 0.05508888513 0.02499170229 0.3657180071
vn -0.2013264298 0.9623811245 -0.1824562252
v 0.05678042397 0.02511398681 0.3657180071
vn 0.1573943794 0.9512712955 -0.2651601136
v 0.04254799709 -0.01200199872 0.4812749922
vn 0.989549458 -0.08814114332 0.1141182035
v 0.05629936233 0.02525207587 0.3657180071
vn -0.07206784934 0.9969059229 -0.031381879
v 0.03450899571 0.02297799848 0.5309079885
vn -0.3753251135 0.9268068075 -0.01265924331
v 0.03782999888 0.02385699935 0.5299760103
vn -0.1936896741 0.9810167551 0.009510769509
v 0.04015799984 0.02433400229 0.4834420085
vn -0.3735217154 0.9273465872 -0.02257940732
v -0.04259799421 -0.009981000796 0.463707
vn -0.3727953434 0.9275533557 -0.02585379966
v -0.04477999732 -0.01037300192 0.464598
vn -0.2033454925 0.9790806174 -0.007190644275
v -0.04127800092 -0.01023099665 0.4215750098
vn -0.1956977993 0.9805827737 -0.01264278684
v -0.03911399469 -0.01027000509 0.3882470429
vn -0.3432978988 0.9384357333 -0.03853416443
v -0.04548000917 -0.01060600579 0.464854002
vn -0.360627085 0.9324626327 -0.02148402669
v 0.05786170065 0.02499357611 0.3657180071
vn 0.3946369886 0.9188315272 -0.003198964288
v 0.02758340165 -5.560163117e-05 0.3657180071
vn 1.224646853e-16 -6.123234263e-17 -1
v 0.05665599555 0.02187299915 0.3804680109
vn 0.990988493 -0.08974173665 0.09943963587
v 0.05445200205 0.006622000132 0.3878479898
vn 0.9907467961 -0.08902141452 0.1024499536
v 0.04757800326 -0.01169299986 0.4369460046
vn 0.01724229567 -0.9998511076 -0.0007012311835
v -0.04900699481 -0.01345300116 0.4657549858
vn 0.01743695699 -0.9998319149 -0.005663375836
v -0.04486100003 -0.01333500072 0.4233889878
vn 0.01754737087 -0.9998418689 0.002888528164
v -0.04133899882 -0.01348000113 0.3887320161
vn 0.01704681292 -0.9997655749 0.01335101482
v -0.03882599995 -0.01386199892 0.3762199581
vn 0.0157754533 -0.9993494153 0.03243340924
v -0.03771900013 -0.01393700112 0.3728899956
vn -0.8008245826 0.4519043565 -0.3930171132
v -0.03578099981 -0.01064900029 0.3719159961
vn -0.7513232231 0.541052103 -0.3778572083
v 0.04254799709 -0.01200199872 0.4812749922
vn 0.01733691059 -0.9998069406 -0.009248592891
vt 0.8028088808 0.5873930454
vt 0.8020660281 0.585686028
vt 0.8027700186 0.5866749883
vt 0.803150177 0.5873850584
vt 0.803030014 0.587387979
vt 0.802504003 0.5859519839
vt 0.8019149899 0.5833950043
vt 0.8014519811 0.583130002
vt 0.8011680245 0.5768060088
vt 0.8198919892 0.5836960077
vt 0.818787992 0.5736879706
vt 0.8194680214 0.5739520192
vt 0.8040721416 0.5873087645
vt 0.8027630448 0.587395668
vt 0.804178834 0.5873049498
vt 0.8051956892 0.5872442722
vt 0.8054234982 0.5872377157
vt 0.8084442616 0.587064147
vt 0.8103135824 0.5870249271
vt 0.8201766014 0.586742878
vt 0.8205739856 0.5840550065
vt 0.8205902576 0.5867443085
vt 0.8209660053 0.5867460966
vt 0.8208179474 0.5867448449
vt 0.8210669756 0.5842379928
vt 0.8212842345 0.5867481232
vt 0.8012930155 0.5862100124
vt 0.8010470271 0.5855529904
vt 0.8340790272 0.5804240108
vt 0.8343770504 0.5835005045
vt 0.8332489729 0.5724800229
vt 0.802693367 0.5874006152
vt 0.8028812408 0.5873911977
vt 0.8021730185 0.586278975
vt 0.802626133 0.5874162316
vt 0.8023470044 0.5863980055
vt 0.8019160032 0.5856260061
vt 0 0
vt 0 0
vt 0 0
vt 0 0
vt 0.8010470271 0.5855529904
vt 0.802664876 0.5874043107
vt 0 0
vt 0 0
vt 0.8332489729 0.5724800229
vt 0.8273800015 0.573300004
vt 0.8263189793 0.5644410253
vt 0.8218659759 0.5739740133
vt 0.8207989931 0.5648279786
vt 0.8199130297 0.5648850203
vt 0.8020499945 0.5862100124
vt 0.8288993835 0.5865054727
vt 0.8209850192 0.5740709901
vt 0.8199880123 0.574090004
vt 0.8188909888 0.5649030209
vt 0.8016650081 0.5855659842
vt 0.8018029928 0.585570991
vt 0 0
vt 0.8187689781 0.5558710098
vt 0.8195189834 0.5558419824
vt 0.8172615767 0.5523045063
vt 0.8187382221 0.5522230864
vt 0.8176397681 0.5522860289
vt 0.8182751536 0.5522577763
vt 0.7988989949 0.5601379871
vt 0.8188909888 0.5649030209
vt 0.8177469969 0.5558930039
vt 0.8199130297 0.5648850203
vt 0.7997260094 0.5682579875
vt 0 0
vt 0.7991960049 0.5601930022
vt 0.7990480065 0.5601559877
vt 0.8321920037 0.5639320016
vt 0.7981690764 0.5518669486
vt 0.7981883883 0.551866889
vt 0.7983415723 0.5518704057
vt 0.7982919812 0.5600609779
vt 0.7986530066 0.551889956
vt 0.7989599705 0.5681329966
vt 0.7984977961 0.551881671
vt 0.8163651228 0.552306056
vt 0.8277372122 0.5513380766
vt 0.8165900111 0.5556269884
vt 0.8183670044 0.5647969842
vt 0.8309739828 0.5552989841
vt 0.8214120269 0.5519532561
vt 0.8246071339 0.5516669154
vt 0.8251230121 0.5556190014
vt 0.8190525174 0.5521924496
vt 0.8263189793 0.5644410253
vt 0.7997260094 0.5682579875
vt 0.7995669842 0.5682389736
vt 0.8002920151 0.5764150023
vt 0.7989599705 0.5681329966
vt 0.7997450233 0.576259017
vt 0.8005290031 0.5830529928
vt 0.8010870218 0.5830500126
vt 0.8010470271 0.5855529904
vt 0 0
vt 0.8019120097 0.5862100124
vt 0 0
vt 0.8025390506 0.5874347687
vt 0.8016650081 0.5855659842
vt 0.8012120128 0.5830460191
vt 0.8004390001 0.5764529705
vt 0.8005750179 0.5765140057
vt 0.8018029928 0.585570991
vt 0.8283270001 0.5822939873
vt 0.8018648028 0.5873399377
vt 0.8023805618 0.5874786377
vt 0.8012930155 0.5862100124
vt 0.8019160032 0.5856260061
vt 0.8219279051 0.5867355466
vt 0.8222232461 0.5867338777
vt 0.8020660281 0.585686028
vt 0.8014519811 0.583130002
vt 0.8340790272 0.5804240108
vt 0.8224785328 0.5867284536
vt 0.8229999542 0.5867063403
vt 0.8254966736 0.5866599083
vt 0.8011680245 0.5768060088
vt 0.8199880123 0.574090004
vt 0.818787992 0.5736879706
vt 0.8194680214 0.5739520192
vt 0.8183670044 0.5647969842
vt 0.8209850192 0.5740709901
vt 0.8220130205 0.5841550231
vt 0.8332489729 0.5724800229
vt 0.8218659759 0.5739740133
vt 0.8227789998 0.5839589834
vt 0.8273800015 0.573300004
vt 0.8342620134 0.5862983465
vt 0.8207989931 0.5648279786
vt 0 0
vt 0 0
vt 0 0
vt 0.7998729944 0.568302989
vt 0 0
vt 0 0
vt 0.8000190258 0.5683540106
vt 0 0
vt 0.8167695999 0.5523065925
vt 0.8177019954 0.5645920038
vt 0.7997689843 0.560370028
vt 0.8170824051 0.5523055196
vt 0.7993450165 0.5602369905
vt 0.8004490137 0.5685260296
vt 0.7990421057 0.5518944263
vt 0.8161510825 0.5523062944
vt 0.7994525433 0.5519013405
vt 0.7976242304 0.5518678427
vt 0.8309739828 0.5552989841
vt 0.8321920037 0.5639320016
vt 0.7982919812 0.5600609779
vt 0.7989599705 0.5681329966
vt 0.8321920037 0.5639320016
vt 0.8172379732 0.5558030009
vt 0.8302782774 0.5510420203
vt 0.7995669842 0.5682389736
vt 0.8177019954 0.5645920038
vt 0.8004490137 0.5685260296
vt 0.8000190258 0.5683540106
vt 0.8007230163 0.5765830278
vt 0.8013229966 0.5830760002
vt 0.7998729944 0.568302989
vt 0.8321920037 0.5639320016
vt 0 0
vt 0.8010470271 0.5855529904
vt 0.7997450233 0.576259017
vt 0.7989599705 0.5681329966
vt 0.8005290031 0.5830529928
vt 0 0
vt 0 0
vt 0 0
vt 0.8332489729 0.5724800229
# mm_gid 0
g mmGroup0
usemtl body_paint_3.001
f 123/40/123 124/38/124 122/39/122 
f 123/40/123 122/39/122 129/41/129 
f 63/78/63 95/66/95 46/80/46 
f 95/66/95 88/75/88 91/76/91 
f 95/66/95 63/78/63 88/75/88 
f 63/78/63 33/152/33 88/75/88 
f 44/160/44 96/73/96 43/70/43 
f 95/66/95 96/73/96 44/160/44 
f 96/73/96 95/66/95 89/77/89 
f 95/66/95 91/76/91 89/77/89 
f 5/46/5 6/47/6 7/48/7 
f 7/48/7 6/47/6 8/49/8 
f 7/48/7 8/49/8 9/50/9 
f 9/50/9 8/49/8 10/51/10 
f 99/72/99 43/70/43 96/73/96 
f 10/69/10 51/68/51 100/60/100 
f 10/69/10 15/67/15 51/68/51 
f 51/68/51 90/62/90 92/64/92 
f 100/60/100 92/64/92 93/65/93 
f 100/60/100 51/68/51 92/64/92 
f 13/54/13 14/55/14 10/51/10 
f 10/51/10 14/55/14 15/56/15 
f 98/61/98 93/65/93 31/63/31 
f 98/61/98 100/60/100 93/65/93 
f 35/149/35 30/151/30 38/145/38 
f 4/118/4 122/31/122 83/29/83 
f 4/118/4 5/129/5 122/31/122 
f 4/118/4 83/29/83 80/30/80 
f 84/27/84 127/112/127 62/110/62 
f 50/42/50 84/27/84 126/28/126 
f 50/42/50 127/112/127 84/27/84 
f 128/52/128 60/58/60 66/37/66 
f 3/128/3 85/25/85 14/123/14 
f 110/84/110 36/150/36 21/82/21 
f 110/84/110 30/151/30 36/150/36 
f 110/84/110 38/145/38 30/151/30 
f 38/145/38 27/147/27 35/149/35 
f 114/141/114 27/147/27 38/145/38 
f 114/141/114 117/138/117 27/147/27 
f 51/68/51 25/146/25 90/62/90 
f 51/68/51 23/143/23 25/146/25 
f 63/78/63 46/80/46 123/156/123 
f 97/89/97 7/91/7 98/61/98 
f 94/86/94 22/83/22 26/159/26 
f 97/89/97 94/86/94 7/91/7 
f 94/86/94 24/88/24 22/83/22 
f 108/74/108 34/153/34 129/154/129 
f 108/74/108 94/86/94 34/153/34 
f 27/147/27 87/79/87 35/149/35 
f 27/147/27 99/72/99 87/79/87 
f 117/138/117 99/72/99 27/147/27 
f 117/138/117 43/70/43 99/72/99 
f 63/78/63 28/155/28 33/152/33 
f 34/153/34 94/86/94 26/159/26 
f 63/78/63 123/156/123 28/155/28 
f 98/61/98 10/69/10 100/60/100 
f 9/134/9 10/69/10 98/61/98 
f 34/137/34 26/135/26 32/139/32 
f 28/71/28 32/139/32 33/136/33 
f 28/71/28 34/137/34 32/139/32 
f 28/71/28 129/140/129 34/137/34 
f 28/71/28 123/142/123 129/140/129 
f 44/93/44 43/92/43 45/94/45 
f 46/95/46 44/93/44 47/96/47 
f 47/96/47 44/93/44 45/94/45 
f 47/96/47 45/94/45 48/97/48 
f 48/97/48 45/94/45 49/98/49 
f 48/97/48 49/98/49 50/99/50 
f 85/25/85 65/114/65 118/26/118 
f 85/25/85 3/128/3 65/114/65 
f 82/21/82 109/24/109 106/22/106 
f 85/25/85 82/21/82 14/123/14 
f 82/21/82 118/26/118 107/23/107 
f 82/21/82 85/25/85 118/26/118 
f 56/104/56 50/99/50 49/98/49 
f 56/104/56 49/98/49 57/105/57 
f 57/105/57 49/98/49 58/106/58 
f 57/105/57 58/106/58 59/107/59 
f 82/21/82 107/23/107 109/24/109 
f 82/21/82 78/12/78 14/123/14 
f 82/21/82 71/10/71 78/12/78 
f 71/10/71 106/22/106 105/20/105 
f 71/10/71 82/21/82 106/22/106 
f 12/7/12 105/20/105 104/19/104 
f 12/7/12 71/10/71 105/20/105 
f 12/7/12 104/19/104 103/18/103 
f 103/18/103 102/17/102 12/7/12 
f 86/6/86 12/7/12 101/16/101 
f 102/17/102 101/16/101 12/7/12 
f 101/16/101 42/15/42 86/6/86 
f 61/3/61 86/6/86 41/13/41 
f 42/15/42 41/13/41 86/6/86 
f 61/3/61 41/13/41 39/4/39 
f 71/10/71 77/11/77 78/12/78 
f 71/10/71 75/9/75 77/11/77 
f 69/116/69 66/113/66 70/117/70 
f 12/7/12 75/9/75 71/10/71 
f 12/7/12 70/8/70 75/9/75 
f 12/7/12 69/2/69 70/8/70 
f 86/6/86 69/2/69 12/7/12 
f 86/6/86 18/36/18 69/2/69 
f 61/3/61 18/36/18 86/6/86 
f 18/36/18 40/5/40 11/33/11 
f 18/36/18 61/3/61 40/5/40 
f 61/3/61 39/4/39 40/5/40 
f 69/2/69 54/34/54 66/37/66 
f 18/36/18 54/34/54 69/2/69 
f 54/34/54 2/1/2 16/14/16 
f 78/125/78 77/124/77 79/126/79 
f 54/34/54 18/36/18 2/1/2 
f 18/36/18 11/33/11 2/1/2 
f 54/34/54 128/52/128 66/37/66 
f 128/52/128 17/32/17 1/43/1 
f 128/52/128 54/34/54 17/32/17 
f 54/34/54 16/14/16 17/32/17 
f 52/101/52 55/35/55 53/103/53 
f 52/101/52 1/43/1 55/35/55 
f 52/101/52 128/52/128 1/43/1 
f 56/57/56 128/52/128 52/101/52 
f 60/58/60 128/52/128 56/57/56 
f 14/55/14 78/125/78 79/126/79 
f 14/55/14 79/126/79 15/56/15 
f 52/101/52 50/42/50 56/57/56 
f 52/101/52 127/112/127 50/42/50 
f 127/112/127 53/103/53 64/111/64 
f 127/112/127 52/101/52 53/103/53 
f 127/112/127 64/111/64 62/110/62 
f 3/128/3 67/115/67 65/114/65 
f 3/128/3 68/119/68 67/115/67 
f 3/128/3 72/120/72 68/119/68 
f 3/128/3 120/131/120 72/120/72 
f 120/131/120 73/121/73 72/120/72 
f 74/53/74 73/121/73 121/109/121 
f 120/131/120 121/109/121 73/121/73 
f 13/127/13 3/128/3 14/123/14 
f 51/68/51 111/158/111 23/143/23 
f 79/85/79 111/158/111 51/68/51 
f 79/85/79 112/144/112 111/158/111 
f 38/145/38 112/144/112 113/148/113 
f 111/158/111 110/84/110 21/82/21 
f 38/145/38 113/148/113 114/141/114 
f 94/86/94 108/74/108 7/91/7 
f 97/89/97 19/87/19 24/88/24 
f 97/89/97 98/61/98 19/87/19 
f 98/61/98 20/90/20 19/87/19 
f 98/61/98 31/63/31 20/90/20 
f 96/73/96 89/77/89 29/81/29 
f 99/72/99 96/73/96 29/81/29 
f 10/51/10 8/49/8 13/54/13 
f 99/72/99 29/81/29 87/79/87 
f 7/48/7 108/157/108 5/46/5 
f 8/130/8 3/128/3 13/127/13 
f 8/130/8 120/131/120 3/128/3 
f 94/86/94 97/89/97 24/88/24 
f 110/84/110 112/144/112 38/145/38 
f 110/84/110 111/158/111 112/144/112 
f 111/158/111 21/82/21 23/143/23 
f 98/61/98 7/91/7 9/134/9 
f 114/163/114 113/162/113 115/164/115 
f 114/163/114 115/164/115 59/107/59 
f 59/107/59 115/164/115 116/165/116 
f 59/107/59 116/165/116 57/105/57 
f 57/105/57 116/165/116 60/108/60 
f 57/105/57 60/108/60 56/104/56 
f 8/130/8 121/109/121 120/131/120 
f 66/113/66 60/108/60 116/165/116 
f 66/113/66 116/165/116 70/117/70 
f 70/117/70 116/165/116 115/164/115 
f 70/117/70 115/164/115 75/122/75 
f 75/122/75 115/164/115 113/162/113 
f 75/122/75 113/162/113 77/124/77 
f 77/124/77 113/162/113 112/161/112 
f 77/124/77 112/161/112 79/126/79 
f 58/106/58 117/166/117 59/107/59 
f 59/107/59 117/166/117 114/163/114 
f 49/98/49 45/94/45 58/106/58 
f 58/106/58 45/94/45 43/92/43 
f 58/106/58 43/92/43 117/166/117 
f 6/132/6 121/109/121 8/130/8 
f 15/67/15 79/85/79 51/68/51 
f 5/129/5 121/109/121 6/132/6 
f 4/118/4 121/109/121 5/129/5 
f 46/95/46 47/96/47 124/170/124 
f 46/95/46 124/170/124 123/171/123 
f 47/96/47 48/97/48 125/172/125 
f 47/96/47 125/172/125 124/170/124 
f 80/30/80 76/133/76 4/118/4 
f 121/109/121 4/118/4 76/133/76 
f 48/97/48 50/99/50 126/169/126 
f 48/97/48 126/169/126 125/172/125 
f 121/109/121 76/133/76 74/53/74 
f 124/102/124 83/174/83 122/59/122 
f 124/102/124 125/168/125 83/174/83 
f 125/168/125 126/100/126 83/174/83 
f 46/80/46 95/66/95 44/160/44 
f 126/100/126 84/45/84 83/174/83 
f 83/174/83 81/44/81 80/173/80 
f 5/46/5 108/157/108 129/167/129 
f 5/46/5 129/167/129 122/176/122 
f 83/174/83 62/175/62 81/44/81 
f 83/174/83 84/45/84 62/175/62 
# mm_gid 38
g mmGroup38
f 81//81 64//64 40//40 
f 11//11 64//64 53//53 
f 11//11 53//53 55//55 
f 17//17 55//55 1//1 
f 16//16 55//55 17//17 
f 81//81 39//39 41//41 
f 2//2 55//55 16//16 
f 11//11 55//55 2//2 
f 81//81 40//40 39//39 
f 40//40 64//64 11//11 
f 81//81 41//41 42//42 
f 81//81 42//42 101//101 
f 81//81 101//101 102//102 
f 76//76 80//80 119//119 
f 105//105 74//74 119//119 
f 72//72 105//105 106//106 
f 67//67 107//107 65//65 
f 107//107 106//106 109//109 
f 74//74 76//76 119//119 
f 65//65 107//107 118//118 
f 68//68 106//106 107//107 
f 68//68 107//107 67//67 
f 72//72 106//106 68//68 
f 73//73 105//105 72//72 
f 74//74 105//105 73//73 
f 81//81 102//102 103//103 
f 81//81 62//62 64//64 
f 81//81 119//119 80//80 
f 104//104 119//119 103//103 
f 105//105 119//119 104//104 
f 81//81 103//103 119//119 
# mm_gid 41
g mmGroup41
f 23//23 93//93 25//25 
f 36//36 24//24 19//19 
f 36//36 19//19 20//20 
f 26//26 22//22 37//37 
f 32//32 37//37 30//30 
f 91//91 32//32 29//29 
f 91//91 29//29 89//89 
f 87//87 32//32 35//35 
f 32//32 26//26 37//37 
f 88//88 32//32 91//91 
f 33//33 32//32 88//88 
f 36//36 37//37 24//24 
f 36//36 20//20 21//21 
f 22//22 24//24 37//37 
f 36//36 30//30 37//37 
f 25//25 93//93 92//92 
f 23//23 31//31 93//93 
f 29//29 32//32 87//87 
f 35//35 32//32 30//30 
f 21//21 31//31 23//23 
f 25//25 92//92 90//90 
f 21//21 20//20 31//31 
