mtllib R4.mtl
v 0.06750428677 0.01728738286 -0.1828574836
vn -0.3293184042 0.9425006509 -0.05693782121
v 0.07194951922 0.01457487512 -0.1828574836
vn 0.9822861552 -0.1164131761 -0.1468397975
v 0.07139883935 0.01203727257 -0.1828574836
vn 0.969823122 -0.1842409968 -0.1596820205
v 0.06792481989 0.01736588031 -0.1828574836
vn -0.1870348155 0.9810808301 -0.04998356476
v -0.002256728942 -0.007487510331 -0.1828574836
vn -0.3030413687 0.8706486225 -0.3874751031
v 0.07190486789 0.0163071081 -0.1828574836
vn 0.9896501303 0.06630299985 -0.1272657365
v 0.04575621337 -0.01370611414 -0.1828574836
vn -0.04214594886 -0.9711774588 -0.2346019745
v 0.07254099846 -0.008528999984 -0.09754399955
vn 0.9781411886 -0.2016459405 -0.05078172684
v 0.07279899716 -0.008140999824 -0.08952499181
vn 0.9791401625 -0.1987929642 -0.0420227088
v 0.07800498605 0.01761600003 -0.08108600229
vn 0.9691792727 0.2404442877 -0.05364783481
v 0.05991942436 0.01456872094 -0.1828574836
vn -0.3307010829 0.9257667065 -0.1832834482
v 0.07562099397 0.01533900015 -0.1297669858
vn 0.9823378921 -0.17797032 -0.05778215826
v 0.07545600832 0.0171540007 -0.1294599921
vn 0.9719387889 0.2269217223 -0.06197978184
v 0.07756300271 0.01859300025 -0.08109699935
vn 0.550437212 0.8341466784 -0.03490330279
v 0.07860999554 0.01768900082 -0.06911498308
vn 0.9561765194 0.2880687118 -0.05237293616
v 0.07813798636 0.01866799966 -0.06910700351
vn 0.6049528718 0.7954862118 -0.0351245068
v 0.07941399515 0.01782700047 -0.05427599698
vn 0.9463516474 0.3197396696 -0.04674486443
v 0.07885299623 0.01876600087 -0.05425100029
vn 0.5597971082 0.8281974196 -0.02676187456
v 0.07999999821 0.01797600091 -0.03747499734
vn 0.9366922975 0.3487309217 -0.03153133392
v 0.07935000211 0.01887799986 -0.03749199957
vn 0.4584178925 0.8885561824 -0.0179150328
v 0.08045899868 0.01815599948 -0.01898699813
vn 0.9379290938 0.3458933234 -0.02543340437
v 0.07981000096 0.01902800053 -0.01898999885
vn 0.4686595201 0.8832101822 -0.0172644183
v 0.07829299569 0.01596900076 -0.08106400073
vn 0.9802463651 -0.1936364025 -0.04027476534
v 0.07894800603 0.01606499963 -0.06913600117
vn 0.9775961637 -0.2040889561 -0.05151103437
v 0.07975099981 0.01619599946 -0.05429499224
vn 0.9709413052 -0.237471059 -0.02967192605
v 0.08026900142 0.01631600037 -0.0390239954
vn 0.9739121199 -0.2253707498 -0.02651727572
v 0.08076000214 0.01638399996 -0.01898599789
vn 0.9710263014 -0.2377942353 -0.02370232716
v 0.07378698885 -0.005460000131 -0.06179298833
vn 0.9741324782 -0.2246249318 -0.02469028905
v 0.07301799953 -0.00791299995 -0.08109999448
vn 0.9784098268 -0.2061342895 -0.01492915209
v 0.07108499855 -0.00848599989 -0.1201619878
vn 0.9808228016 -0.1867424995 -0.05580241978
v 0.07060398906 -0.0147909997 -0.1079170033
vn 0.9862222075 -0.1591358036 -0.04518400878
v 0.06850634515 -0.006597919855 -0.1828574836
vn 0.9637725949 -0.1382934302 -0.2280730009
v -0.008839454502 -0.01160738058 -0.1828574836
vn -0.07288949937 -0.9946367145 -0.07338190824
v -0.005862000864 -0.01131800003 -0.1273569912
vn -0.04457374662 -0.9989950061 0.004705140833
v -0.001207998605 -0.007414000109 -0.126504004
vn -0.2246782035 0.9744284153 0.002991971094
v -0.001870996202 -0.007627000101 -0.1269469857
vn -0.3454774022 0.9383920431 0.008104242384
v 0.0009110006504 -0.007003000006 -0.1257429868
vn -0.3330123425 0.9428966641 0.006979362573
v 0.07247500122 0.01834500022 -0.0846690014
vn -0.328233093 0.9445767403 0.006145622581
v 0.07503098249 0.01819399931 -0.1293419898
vn 0.7189012766 0.6933909059 -0.04888759181
v -0.002432001289 -0.007868999615 -0.1272209883
vn -0.5406660438 0.8410482407 0.01783621311
v -0.003161997302 -0.008500000462 -0.1272599846
vn -0.7061002851 0.7077224255 0.02347979695
v 0.07060398906 -0.0147909997 -0.1079170033
vn -0.04711975902 -0.9988847375 0.002991799731
v 0.0738620013 0.01854499988 -0.1292310059
vn -0.05329227075 0.9985473752 -0.007945353165
v -0.005862000864 -0.01131800003 -0.1273569912
vn -0.7161436081 0.6973981857 0.02782262303
v -0.003711001016 -0.01092300005 -0.05995900184
vn -0.7105297446 0.7034307122 0.01824181341
v -0.000918000238 -0.008151000366 -0.05996797979
vn -0.7035096884 0.7104746699 0.01731584594
v 0.07801699638 0.01915499941 -0.03746699914
vn -0.05264397711 0.9986077547 -0.003338837763
v 0.07755599916 0.01907500066 -0.05444699898
vn -0.09105452895 0.9958444834 -0.001686379663
v 0.07685399055 0.01900999993 -0.06908198446
vn -0.01306821033 0.999904573 -0.004478058312
v 0.07631199062 0.01894699968 -0.08094898611
vn -0.02945378795 0.9995471239 -0.006165473256
v 0.06747913361 -0.01469626091 -0.1828574836
vn 0.2963522375 -0.948489964 -0.1119914949
v 0.07182200253 -0.01484999992 -0.07961899787
vn 0.9817963839 -0.1884101629 -0.0240316093
v 0.07234499604 -0.0148649998 -0.04870600253
vn 0.9829735756 -0.1829928756 -0.01662917994
v 0.06871632487 -0.005332002416 -0.1828574836
vn 0.8128488064 -0.1261677444 -0.5686461926
v 0.07154755294 0.01743182726 -0.1828574836
vn 0.9283913374 0.3643027544 -0.07330089808
v 0.07188503444 0.01650075056 -0.1828574836
vn 0.9497588873 0.3017306924 -0.08316633105
v 0.07150389254 0.01753660105 -0.1828574836
vn 0.3304448128 0.9432184696 -0.03384078667
v -0.003711001016 -0.01092300005 -0.05995900184
vn -0.05108383298 -0.9986872077 0.003784937551
v 0.07182200253 -0.01484999992 -0.07961899787
vn -0.05184862763 -0.998654902 0.0002764383098
v 0.07234499604 -0.0148649998 -0.04870600253
vn -0.05185446888 -0.9986544251 0.0006351909251
v 0.08017899841 0.01917099766 1.013803058e-06
vn 0.4362602532 0.8997198939 -0.01345642656
v 0.07458298653 -0.004920999985 -0.0281919986
vn 0.9687398076 -0.2472723275 -0.019988304
v 0.000923999818 -0.007073000539 -0.05929799378
vn -0.2325126082 0.9725897312 0.002663918072
v 0.002924001077 -0.006632000208 -0.05771899223
vn -0.3326378167 0.943035543 0.005998992827
v 0.0002699982433 -0.007284000516 -0.05971599743
vn -0.351341933 0.9362246394 0.006499980576
v -0.0002850007149 -0.007521999534 -0.05996199697
vn -0.6005544662 0.7994552255 0.01434048265
v 0.07841799408 0.01923899911 -0.01898800023
vn -0.05749746785 0.9983434081 -0.002127946122
v 0.07487799227 0.0186960008 -0.02141500078
vn -0.3276179731 0.9447898269 0.006218766328
v 0.07278199494 -0.01485899929 -0.01539899781
vn 0.9822662473 -0.1873508245 -0.0072570052
v 0.07278199494 -0.01485899929 -0.01539899781
vn -0.05364887789 -0.9985556006 0.002913177246
v 0.08092200011 0.01829900034 1.013726319e-06
vn 0.9313089848 0.3641571105 0.007292890921
v 0.08124998957 0.01643199474 1.013671181e-06
vn 0.9759162664 -0.2176420093 -0.01481359079
v 0.001715001068 -0.007170999888 1.013273845e-06
vn -0.3463586569 0.9380421638 0.01060999185
v -0.00216896669 -0.01071400288 1.013001452e-06
vn -0.1193176657 -0.988094151 0.0971250236
v 0.0005749977427 -0.008015000261 1.013392875e-06
vn -0.70163697 0.7117810249 0.03276222944
v 0.07450399548 -0.007413998712 1.012862981e-06
vn 0.8623095155 -0.2346252948 0.4487462938
v 0.08046346158 0.01365174912 1.0127427e-06
vn 0.941652894 -0.266392082 0.2057306767
v 0.07270599157 -0.01485899929 1.013955512e-06
vn 0.8732792139 -0.4697138369 0.1294306368
v 0.07509700209 0.0186689999 1.012907319e-06
vn -0.215981558 0.637719214 0.7393687963
v 0.004337020218 -0.006498991977 1.012930397e-06
vn -0.3293038607 0.9330350161 0.1449298412
v 0.07872900367 0.01926900074 1.01202204e-06
vn -0.09744233638 0.986461699 0.1319027543
v 0.08009024709 0.01917699724 1.013449605e-06
vn -1.188032229e-06 -9.289638569e-07 1
v 0.001194999553 -0.007403000258 1.013329324e-06
vn -0.4374800622 0.8991819024 0.009117188863
v 0.001094170846 -0.007502526045 1.013341034e-06
vn -0.7023941278 0.7115772367 0.01732837781
v 0.00141373591 -0.007305409294 1.013308065e-06
vn 1.151376381e-07 -1.282550954e-08 1
v 0.002380000427 -0.006955000106 1.013196879e-06
vn -0.2303991318 0.9730750322 0.006418431643
v 0.001997454325 -0.007079255767 1.013241217e-06
vn -0.3089154363 0.9510582089 0.007712829392
v 0.0652801618 -0.01444791351 1.013095698e-06
vn -0.02985674515 -0.5393306017 0.8415646553
v 0.001899998984 -0.007236883044 1.013251335e-06
vn 1.250335231e-07 -2.801941434e-08 1
v 0.03124742955 -0.0060629379 1.013666974e-06
vn -5.808010961e-09 -4.335216275e-08 1
v 0.002883358859 -0.007084785029 1.013130259e-06
vn 1.284502247e-07 -1.330995758e-08 1
v 0.0003946646757 -0.00905311387 1.013424708e-06
vn -1.082627143e-08 3.332120713e-08 1
v 0.08013542742 0.01864691451 1.013264523e-06
vn -1.209161837e-06 -7.148788654e-07 1
v 0.08099359274 0.01672052778 1.012008283e-06
vn -1.532946271e-06 -5.877890317e-07 1
v 0.08011396229 0.01684501022 1.012172447e-06
vn -4.905765394e-08 1.231218931e-07 1
v 0.04399039969 -0.002085210988 1.013713586e-06
vn 1.050542764e-09 2.885403028e-08 1
v 0.07044463605 0.01787448861 -0.1828574836
vn -0.1766181439 0.9836710095 -0.03460388631
v 0.07056244463 0.01783946715 -0.1828574836
vn 0.3034921587 0.9514269829 -0.05176105723
v -0.002895786427 -0.0076119937 -0.1828574836
vn -0.205226317 0.9784882665 -0.02104382776
v -0.004263213836 -0.007908347063 -0.1828574836
vn -0.2504829764 0.967987597 -0.01607156359
v -0.005708803423 -0.008531936444 -0.1828574836
vn -0.6778563261 0.7348613143 0.02212742344
v -0.006130111404 -0.008933614008 -0.1828574836
vn -0.7190833092 0.6943032742 0.02936167456
v -0.0069973059 -0.009840202518 -0.1828574836
vn -0.7024159431 0.7117618918 -0.002613966353
v -0.005475530867 -0.008329810575 -0.1828574836
vn -0.5993372202 0.8000819087 0.0257655587
v -0.005104350857 -0.008164565079 -0.1828574836
vn -0.4051974118 0.914180696 0.009419493377
v -0.004465172533 -0.007974440232 -0.1828574836
vn -0.2602086365 0.9655308127 -0.006458167918
v -0.004930186551 -0.008088095114 -0.1828574836
vn -0.3408970535 0.9400399923 0.01067614276
vt 0 0
vt 0 0
vt 0 0
vt 0 0
vt 0 0
vt 0 0
vt 0 0
vt 0.8083639741 0.6417679787
vt 0.8100810051 0.6422960162
vt 0 0
vt 0.8217328191 0.6206256747
vt 0.8242139816 0.6493610144
vt 0.8100039959 0.6299099922
vt 0.8100039959 0.6299099922
vt 0.8096445799 0.6204901934
vt 0.8240619898 0.6381700039
vt 0.8334779739 0.6369550228
vt 0.8259909749 0.6388279796
vt 0.8232293725 0.6207309961
vt 0.807992816 0.6203942299
vt 0.8083639741 0.6417679787
vt 0.8251159787 0.6388289928
vt 0.8260570168 0.6409519911
vt 0.8251789808 0.6409549713
vt 0.826120019 0.6435750127
vt 0.8252379894 0.6435790062
vt 0.8261250257 0.6465399861
vt 0.8252530098 0.6465359926
vt 0.8261119723 0.6498069763
vt 0.8252549767 0.6498060226
vt 0.8267040253 0.6388229728
vt 0.82674402 0.6409429908
vt 0.8267809749 0.6435689926
vt 0.8267740011 0.6462510228
vt 0.8267890215 0.6498069763
vt 0.8333690166 0.6434109807
vt 0.8334059715 0.638628006
vt 0.808292985 0.6294749975
vt 0.808292985 0.6294749975
vt 0 0
vt 0.8267040253 0.6388229728
vt 0.8250934482 0.620737195
vt 0.8368769884 0.6386470199
vt 0.8364769816 0.6335780025
vt 0.8368769884 0.6386470199
vt 0.8364769816 0.6335780025
vt 0.8083639741 0.6417679787
vt 0.8357008696 0.6225814819
vt 0.832937181 0.620331347
vt 0.8258318901 0.6207071543
vt 0.8263670206 0.6301530004
vt 0.8250098825 0.6207395792
vt 0.8241286278 0.620749414
vt 0.8242178559 0.6207488775
vt 0.8248419762 0.6465349793
vt 0.8248329759 0.6435390115
vt 0.8247720003 0.6409540176
vt 0.8247129917 0.6388499737
vt 0.8266733289 0.6206635237
vt 0.8361099958 0.6432570219
vt 0.8368769884 0.6386470199
vt 0.8357639909 0.6384400129
vt 0.8356750011 0.6371330023
vt 0.8353409767 0.6360279918
vt 0.8372229934 0.6442450285
vt 0.8240619898 0.6381700039
vt 0.8248329759 0.6435390115
vt 0.824319005 0.6302719712
vt 0.8247129917 0.6388499737
vt 0.8247720003 0.6409540176
vt 0.8248329759 0.6435390115
vt 0.8372229934 0.6442450285
vt 0.8368769884 0.6386470199
vt 0.8333789706 0.6407399774
vt 0 0
vt 0.8377529979 0.6503099799
vt 0 0
vt 0 0
vt 0.8377529979 0.6503099799
vt 0.8085349798 0.6531389952
vt 0.8083639741 0.6417679787
vt 0.8268219829 0.6531350017
vt 0.8333590031 0.6497579813
vt 0.8267890215 0.6498069763
vt 0.8275800943 0.6531348825
vt 0.8333590031 0.6497579813
vt 0.8365749717 0.6496649981
vt 0.8374584913 0.6501487494
vt 0.8242139816 0.6493610144
vt 0.8245249987 0.6495815516
vt 0.8100810051 0.6422960162
vt 0.8171474934 0.6458284855
vt 0.8248360157 0.6498020291
vt 0.8248360157 0.6498020291
vt 0.8252670169 0.6531350017
vt 0.8252410889 0.6531350017
vt 0.8252549767 0.6498060226
vt 0.8365749717 0.6496649981
vt 0.8092640042 0.6531389952
vt 0.8093000054 0.6417790055
vt 0.8090940118 0.641775012
vt 0.8094298244 0.6531389952
vt 0.809401989 0.6418229938
vt 0.8095039725 0.641866982
vt 0.8096590042 0.6531389952
vt 0.8095449209 0.6531389952
vt 0.809706986 0.641996026
vt 0.8097413778 0.6531389952
vt 0.8098939657 0.6421459913
vt 0.8261119723 0.6498069763
vt 0.8261340261 0.6531350017
vt 0 0
vt 0 0
vt 0 0
vt 0 0
vt 0 0
vt 0.8333590031 0.6497579813
vt 0.8267740011 0.6462510228
vt 0.8267890215 0.6498069763
vt 0.8251159787 0.6388289928
vt 0.8259909749 0.6388279796
vt 0.8334779739 0.6369550228
vt 0.8336790204 0.6357750297
vt 0.824706018 0.6302570105
vt 0.8353409767 0.6360279918
vt 0.8348249793 0.6353880167
vt 0.8325576782 0.6203405857
vt 0.8344100118 0.6314499974
vt 0.8255890012 0.6302300096
vt 0.8252530098 0.6465359926
vt 0.8248360157 0.6498020291
vt 0.8252549767 0.6498060226
vt 0.8248419762 0.6465349793
vt 0.8242139816 0.6493610144
vt 0 0
vt 0.8248329759 0.6435390115
vt 0.8377529979 0.6503099799
vt 0.8372229934 0.6442450285
vt 0.8365749717 0.6496649981
vt 0.8361099958 0.6432570219
vt 0.8333740234 0.6464819908
vt 0.8333690166 0.6434109807
vt 0.8267809749 0.6435689926
vt 0.8377529979 0.6503099799
vt 0.8372229934 0.6442450285
vt 0.8233026266 0.6207329035
vt 0.8237591386 0.6207461953
vt 0.8237980604 0.6207466722
vt 0.809706986 0.641996026
vt 0.8096339703 0.6297690272
vt 0.8096339703 0.6297690272
vt 0.8095322251 0.620485425
vt 0.809296608 0.6204868555
vt 0.8089630008 0.6294999719
vt 0.8087815046 0.6203958988
vt 0.808631897 0.6203907132
vt 0.8084164262 0.6203877926
vt 0.8090940118 0.641775012
vt 0.8093000054 0.6417790055
vt 0.8089630008 0.6294999719
vt 0.8090940118 0.641775012
vt 0.8095039725 0.641866982
vt 0.809409976 0.6296179891
vt 0.8091859818 0.629512012
vt 0.8091859818 0.629512012
vt 0.808852911 0.620397687
vt 0.8090041876 0.6204202771
vt 0.809409976 0.6296179891
vt 0.8092266917 0.6204621792
vt 0.8090751171 0.6204397678
# mm_gid 0
g mmGroup0
usemtl body_paint_3.001
f 74/80/74 45/81/45 58/8/58 
f 70/112/70 74/113/74 58/114/58 
f 60/75/60 70/77/70 58/78/58 
f 58/5/58 59/6/59 60/7/60 
f 52/61/52 60/72/60 59/73/59 
f 31/46/31 52/45/52 59/43/59 
f 31/46/31 59/43/59 42/44/42 
f 31/46/31 42/44/42 51/48/51 
f 31/46/31 51/48/51 32/49/32 
f 30/128/30 31/46/31 32/49/32 
f 30/128/30 32/49/32 54/127/54 
f 30/128/30 54/127/54 3/59/3 
f 12/51/12 30/128/30 3/59/3 
f 12/51/12 3/59/3 2/50/2 
f 12/51/12 2/50/2 6/42/6 
f 13/129/13 12/51/12 6/42/6 
f 13/129/13 6/42/6 56/52/56 
f 13/129/13 56/52/56 55/54/55 
f 39/124/39 13/129/13 55/54/55 
f 39/124/39 55/54/55 57/53/57 
f 39/124/39 57/53/57 43/68/43 
f 14/120/14 39/124/39 43/68/43 
f 14/120/14 43/68/43 50/69/50 
f 16/24/16 14/22/14 50/58/50 
f 16/24/16 50/58/50 49/57/49 
f 18/26/18 16/24/16 49/57/49 
f 18/26/18 49/57/49 48/56/48 
f 20/28/20 18/26/18 48/56/48 
f 20/28/20 48/56/48 47/55/47 
f 67/131/67 20/130/20 47/133/47 
f 67/131/67 47/133/47 68/134/68 
f 67/93/67 68/89/68 79/90/79 
f 67/93/67 79/90/79 81/94/81 
f 61/95/61 67/93/67 81/94/81 
f 61/95/61 81/94/81 82/96/82 
f 62/83/62 72/82/72 77/85/77 
f 62/83/62 77/85/77 76/86/76 
f 62/87/62 76/98/76 78/88/78 
f 69/76/69 62/87/62 78/88/78 
f 70/79/70 69/76/69 78/88/78 
f 78/115/78 88/116/88 70/112/70 
f 74/113/74 70/112/70 88/116/88 
f 63/107/63 73/105/73 87/108/87 
f 63/107/63 87/108/87 86/109/86 
f 64/91/64 63/107/63 86/109/86 
f 64/91/64 86/109/86 80/92/80 
f 68/89/68 64/91/64 80/92/80 
f 68/89/68 80/92/80 79/90/79 
f 64/9/64 68/12/68 38/66/38 
f 37/13/37 64/9/64 38/66/38 
f 37/14/37 38/16/38 11/11/11 
f 37/14/37 11/11/11 5/15/5 
f 35/151/35 37/14/37 5/15/5 
f 35/151/35 5/15/5 99/152/99 
f 35/151/35 99/152/99 100/153/100 
f 36/168/36 35/151/35 100/153/100 
f 36/168/36 100/153/100 106/169/106 
f 36/168/36 106/169/106 107/170/107 
f 40/165/40 36/168/36 107/170/107 
f 40/165/40 107/170/107 105/167/105 
f 40/165/40 105/167/105 104/166/104 
f 41/154/41 40/165/40 104/166/104 
f 41/154/41 104/166/104 101/155/101 
f 41/154/41 101/155/101 102/156/102 
f 44/39/44 41/154/41 102/156/102 
f 44/39/44 102/156/102 103/157/103 
f 44/39/44 103/157/103 33/20/33 
f 34/38/34 44/39/44 33/20/33 
f 34/40/34 33/135/33 7/4/7 
f 42/3/42 34/40/34 7/4/7 
f 42/3/42 7/4/7 51/2/51 
f 98/148/98 43/68/43 57/53/57 
f 43/68/43 98/148/98 97/147/97 
f 43/68/43 97/147/97 4/146/4 
f 38/16/38 43/68/43 4/146/4 
f 38/16/38 4/146/4 1/19/1 
f 1/19/1 11/11/11 38/16/38 
f 38/16/38 50/69/50 43/68/43 
f 38/16/38 49/70/49 50/69/50 
f 38/16/38 48/71/48 49/70/49 
f 38/66/38 68/12/68 48/67/48 
f 68/134/68 47/133/47 48/136/48 
f 58/1/58 34/40/34 42/3/42 
f 58/1/58 42/3/42 59/10/59 
f 45/21/45 34/38/34 58/47/58 
f 45/21/45 44/39/44 34/38/34 
f 44/39/44 45/21/45 41/154/41 
f 45/21/45 46/158/46 41/154/41 
f 66/159/66 41/160/41 46/161/46 
f 75/99/75 66/100/66 46/101/46 
f 75/99/75 46/101/46 74/80/74 
f 45/81/45 74/80/74 46/101/46 
f 66/100/66 75/99/75 84/102/84 
f 66/100/66 84/102/84 83/103/83 
f 65/104/65 66/100/66 83/103/83 
f 73/105/73 65/104/65 83/103/83 
f 73/105/73 83/103/83 85/106/85 
f 63/107/63 65/104/65 73/105/73 
f 63/149/63 35/150/35 65/162/65 
f 35/150/35 36/163/36 65/162/65 
f 65/162/65 36/163/36 66/159/66 
f 36/163/36 40/164/40 66/159/66 
f 66/159/66 40/164/40 41/160/41 
f 35/150/35 63/149/63 37/13/37 
f 63/149/63 64/9/64 37/13/37 
f 53/138/53 69/137/69 70/144/70 
f 53/138/53 70/144/70 60/145/60 
f 52/61/52 53/65/53 60/72/60 
f 53/65/53 52/61/52 28/60/28 
f 53/138/53 28/140/28 62/139/62 
f 69/137/69 53/138/53 62/139/62 
f 62/141/62 28/142/28 25/143/25 
f 62/141/62 25/143/25 26/118/26 
f 62/117/62 26/118/26 27/119/27 
f 72/82/72 62/83/62 27/84/27 
f 72/82/72 27/84/27 21/110/21 
f 71/111/71 72/82/72 21/110/21 
f 61/95/61 71/111/71 21/110/21 
f 22/97/22 61/95/61 21/110/21 
f 20/28/20 22/30/22 21/29/21 
f 20/28/20 21/29/21 19/27/19 
f 18/26/18 20/28/20 19/27/19 
f 18/26/18 19/27/19 17/25/17 
f 16/24/16 18/26/18 17/25/17 
f 16/24/16 17/25/17 15/23/15 
f 14/22/14 16/24/16 15/23/15 
f 14/22/14 15/23/15 10/18/10 
f 39/124/39 14/120/14 10/121/10 
f 39/124/39 10/121/10 13/129/13 
f 10/121/10 12/51/12 13/129/13 
f 12/51/12 10/121/10 23/41/23 
f 9/122/9 12/51/12 23/41/23 
f 29/37/29 9/17/9 23/31/23 
f 28/74/28 29/37/29 23/31/23 
f 28/74/28 23/31/23 24/32/24 
f 28/36/28 24/32/24 25/33/25 
f 17/25/17 25/33/25 24/32/24 
f 15/23/15 17/25/17 24/32/24 
f 15/23/15 24/32/24 23/31/23 
f 10/18/10 15/23/15 23/31/23 
f 17/25/17 19/27/19 25/33/25 
f 19/27/19 26/34/26 25/33/25 
f 19/27/19 21/29/21 26/34/26 
f 21/29/21 27/35/27 26/34/26 
f 28/60/28 52/61/52 29/62/29 
f 52/61/52 9/63/9 29/62/29 
f 52/61/52 8/64/8 9/63/9 
f 12/51/12 9/122/9 8/123/8 
f 12/51/12 8/123/8 30/128/30 
f 30/128/30 8/126/8 31/46/31 
f 52/45/52 31/46/31 8/125/8 
f 20/130/20 67/131/67 22/132/22 
f 67/93/67 61/95/61 22/97/22 
# mm_gid 5
g mmGroup5
f 71//71 61//61 82//82 
f 71//71 82//82 93//93 
f 72//72 71//71 93//93 
f 72//72 93//93 94//94 
f 72//72 94//94 95//95 
f 72//72 95//95 77//77 
f 74//74 88//88 90//90 
f 74//74 90//90 92//92 
f 75//75 74//74 92//92 
f 75//75 92//92 91//91 
f 75//75 91//91 89//89 
f 73//73 75//75 89//89 
f 73//73 89//89 87//87 
f 75//75 73//73 85//85 
f 75//75 85//85 84//84 
# mm_gid 11
g mmGroup11
f 80//80 96//96 79//79 
f 88//88 79//79 96//96 
f 88//88 96//96 90//90 
f 80//80 90//90 96//96 
f 90//90 80//80 92//92 
f 92//92 80//80 91//91 
f 91//91 80//80 86//86 
f 91//91 86//86 89//89 
f 89//89 86//86 87//87 
f 88//88 76//76 79//79 
f 79//79 76//76 77//77 
f 79//79 77//77 95//95 
f 79//79 95//95 81//81 
f 81//81 95//95 93//93 
f 81//81 93//93 82//82 
f 93//93 95//95 94//94 
f 88//88 78//78 76//76 
# mm_gid 12
g mmGroup12
f 83//83 84//84 85//85 
# mm_gid 20
g mmGroup20
f 32//32 51//51 7//7 
f 54//54 32//32 7//7 
f 11//11 54//54 7//7 
f 5//5 11//11 7//7 
f 5//5 7//7 33//33 
f 103//103 5//5 33//33 
f 103//103 99//99 5//5 
f 103//103 100//100 99//99 
f 103//103 102//102 100//100 
f 102//102 106//106 100//100 
f 102//102 101//101 106//106 
f 101//101 105//105 106//106 
f 105//105 107//107 106//106 
f 101//101 104//104 105//105 
f 11//11 3//3 54//54 
f 11//11 1//1 3//3 
f 1//1 4//4 3//3 
f 4//4 2//2 3//3 
f 4//4 6//6 2//2 
f 4//4 97//97 6//6 
f 97//97 98//98 6//6 
f 98//98 56//56 6//6 
f 98//98 55//55 56//56 
f 98//98 57//57 55//55 
